<svg width="55" height="40" viewBox="0 0 55 40" fill="none" xmlns="http://www.w3.org/2000/svg">
<path d="M5.36502 24H11.8599L17.0932 38.4H22.3265L26.2515 24L30.4 23.9999C30.4 23.9999 28.8 34.4 36 38.4H0V30.5529C0.000231835 29.6913 0.139238 28.8383 0.409069 28.0425C0.678899 27.2468 1.07426 26.5239 1.57254 25.9153C2.07082 25.3067 2.66225 24.8243 3.31299 24.4956C3.96374 24.167 4.66104 23.9985 5.36502 24Z" fill="#1DA1F2"/>
<path fill-rule="evenodd" clip-rule="evenodd" d="M18.8844 1.08138C13.6082 1.08138 9.33085 5.3525 9.33085 10.6213V11.8325C9.33085 17.1013 13.6082 21.3724 18.8844 21.3724C24.1606 21.3724 28.4379 17.1013 28.4379 11.8325V10.6213C28.4379 5.3525 24.1606 1.08138 18.8844 1.08138ZM8.2478 10.6213C8.2478 4.75538 13.0099 0 18.8844 0C24.7588 0 29.5209 4.75538 29.5209 10.6213V11.8325C29.5209 17.6984 24.7588 22.4538 18.8844 22.4538C13.0099 22.4538 8.2478 17.6984 8.2478 11.8325V10.6213Z" fill="#1F3965"/>
<path d="M22.3996 25.6H17.5996L18.5596 28.8H21.4396L22.3996 25.6Z" fill="#1F3965"/>
<path d="M35.1634 35.2911C37.0878 37.2134 39.4436 38.6999 42.5457 39.8765C42.7323 39.9395 42.9795 40 43.1662 40C43.4764 40 43.7866 39.9371 43.9733 39.8136L44.7804 39.5037C45.4008 39.2567 46.0843 38.9469 46.7048 38.637C49.1236 37.3974 50.985 35.848 52.352 33.9886C53.5929 32.3762 54.2764 30.6428 54.337 28.8439C54.4 27.6673 54.4 26.4277 54.4 25.2487V19.9175C54.4 18.8644 53.7795 18.1817 52.7253 18.0582L52.2914 17.9952C51.6709 17.9323 51.1135 17.8718 50.5536 17.7483C48.5686 17.3149 46.6442 16.3853 44.4726 14.8963C44.1623 14.6494 43.7285 14.4 43.2316 14.4C42.6742 14.4 42.3009 14.6469 41.9907 14.8963C39.1356 16.8791 36.5301 17.8718 33.8614 18.0582C33.1779 18.1211 32 18.3681 32 20.041V22.7066V28.0982C32 28.8414 32.063 29.5847 32.2472 30.3909C32.6811 32.0686 33.6122 33.6788 35.1634 35.2911ZM34.6666 20.5397C37.5217 20.2298 40.2507 19.1766 43.1663 17.1938L43.1687 27.357H51.6685C51.6685 27.7904 51.6685 28.2237 51.6054 28.5966C51.5424 29.8362 51.1086 31.0128 50.1779 32.2523C49 33.8018 47.4488 35.1043 45.4614 36.1575C44.8409 36.4673 44.2835 36.7143 43.663 36.9637C43.4764 37.0266 43.3528 37.0871 43.1661 37.2106L43.1687 27.357L34.6664 27.3573V22.5855L34.6666 20.5397Z" fill="#1F3965"/>
<path d="M17.5996 38.3999L18.5596 30.3999H21.4396L22.3996 38.3999H17.5996Z" fill="#1F3965"/>
</svg>
