<svg width="72" height="72" viewBox="0 0 72 72" fill="none" xmlns="http://www.w3.org/2000/svg">
<path d="M23.8499 50.8501V49.9501C23.8499 48.6601 22.7699 47.5801 21.4799 47.5801C20.1899 47.5801 19.1099 48.6601 19.1099 49.9501V50.8501C19.1099 52.1401 20.1899 53.2201 21.4799 53.2201C22.7699 53.2201 23.8499 52.1401 23.8499 50.8501Z" fill="#DBE2EA"/>
<path d="M52.9802 50.8501V49.9501C52.9802 48.6601 51.9002 47.5801 50.6102 47.5801C49.3202 47.5801 48.2402 48.6601 48.2402 49.9501V50.8501C48.2402 52.1401 49.3202 53.2201 50.6102 53.2201C51.9002 53.2201 52.9802 52.1401 52.9802 50.8501Z" fill="#DBE2EA"/>
<path d="M29.22 24.87V25.17C29.22 26.82 29.79 28.32 30.75 29.49C32.01 31.05 33.93 32.04 36.09 32.04H36.12C39.93 32.04 43.02 28.95 43.02 25.14L40.56 31.35L44.49 30.99L44.04 21.45C44.04 21.45 44.64 16.23 41.67 15.48C41.4 15.18 41.07 14.97 40.74 14.73C40.35 14.1 39.27 13.23 36.06 13.23C31.62 13.29 29.67 15.6 28.8 17.88C27.93 20.16 27 31.2 27 31.2H31.53L29.19 24.87H29.22ZM30.09 23.04C30.51 21.39 31.38 19.74 33.15 20.28C36.45 21.3 39.27 18.24 39.27 18.24C39.27 18.24 41.28 19.23 42.18 22.23V25.17C42.18 28.5 39.48 31.2 36.15 31.2H36.12C32.79 31.2 30.09 28.5 30.09 25.17V23.04V23.04Z" fill="#6B82AB"/>
<path d="M24.0602 40.08C23.6102 40.02 23.2202 40.35 23.2202 40.8V47.19C24.2702 47.7 24.9902 48.75 24.9902 49.98V51.06C24.9902 52.29 24.2702 53.34 23.2202 53.85V56.25C23.2202 56.61 23.4902 56.94 23.8502 56.97L35.3102 58.32V41.61L24.0302 40.05L24.0602 40.08ZM25.5602 45.12V43.02L33.0602 44.07V46.08L25.5602 45.15V45.12Z" fill="#DBE2EA"/>
<path d="M47.9399 40.0801L36.6899 41.6401V58.3501L48.1199 57.0001C48.4799 56.9701 48.7499 56.6401 48.7499 56.2801V53.8801C47.6999 53.3701 46.9799 52.3201 46.9799 51.0901V50.0101C46.9799 48.7801 47.6999 47.7301 48.7499 47.2201V40.8301C48.7499 40.3801 48.3599 40.0501 47.9099 40.1101L47.9399 40.0801ZM46.9799 45.1201L39.4499 46.0501V44.0401L46.9799 42.9901V45.0901V45.1201Z" fill="#DBE2EA"/>
<path d="M35.9998 41.0099L48.0298 39.1199C49.0498 38.9699 49.9498 39.8099 49.9498 40.9499V46.5299C50.2198 46.4099 50.5498 46.3499 50.8798 46.3499H51.4198C52.7398 46.3499 53.8198 47.4299 53.8198 48.7499V50.6399C54.3898 50.5799 54.8098 50.0999 54.8098 49.5299C54.8098 46.6799 55.2598 43.4699 54.5398 40.7099C53.9098 38.3999 52.4398 35.7299 50.9098 33.8699C49.4698 32.1599 47.5498 31.4099 45.3298 31.4099H42.2098C40.9798 33.5399 38.6698 35.0099 36.0298 35.0099C33.3898 35.0099 31.1098 33.5699 29.8498 31.4099H26.7298C24.5398 31.4099 22.6498 32.0999 21.2098 33.7799C19.6498 35.6399 18.0898 38.3999 17.4598 40.7399C17.0098 42.4499 17.2198 44.2499 17.2198 45.9899C17.2198 47.1599 17.2198 48.3599 17.2198 49.5299C17.2198 50.0999 17.6698 50.5799 18.2098 50.6399V48.7499C18.2098 47.4299 19.2898 46.3499 20.6098 46.3499H21.1498C21.4798 46.3499 21.7798 46.4099 22.0798 46.5299V40.9499C22.0798 39.8399 22.9798 38.9699 23.9998 39.1199L36.0298 41.0099" fill="#A6B4CD"/>
</svg>
