<svg width="50" height="49" viewBox="0 0 50 49" fill="none" xmlns="http://www.w3.org/2000/svg">
<path d="M10.776 49L4.8125 33.6566H42.6554L37.0371 49H10.776Z" fill="#1DA1F2"/>
<path fill-rule="evenodd" clip-rule="evenodd" d="M2.22024 26.0342C1.36788 26.0342 0.676901 26.7241 0.676901 27.5752V30.3503C0.676901 31.2013 1.36788 31.8912 2.22024 31.8912H47.7798C48.6321 31.8912 49.3231 31.2013 49.3231 30.3503V27.5752C49.3231 26.7241 48.6321 26.0342 47.7798 26.0342H2.22024ZM0 27.5752C0 26.3508 0.994034 25.3583 2.22024 25.3583H47.7798C49.006 25.3583 50 26.3508 50 27.5752V30.3503C50 31.5746 49.006 32.5671 47.7798 32.5671H2.22024C0.994034 32.5671 0 31.5746 0 30.3503V27.5752Z" fill="#1F3965"/>
<path d="M12.6007 15.7097H17.5649L21.5649 24.6892H25.5649L28.5649 15.7097H33.7565C34.8423 15.7097 35.8836 16.1404 36.6514 16.907C37.4191 17.6735 37.8504 18.7132 37.8504 19.7973V24.6892H8.5V19.796C8.50018 19.2587 8.60642 18.7268 8.81267 18.2306C9.01891 17.7344 9.32109 17.2836 9.70195 16.9041C10.0828 16.5246 10.5348 16.2237 11.0322 16.0188C11.5296 15.8139 12.0626 15.7088 12.6007 15.7097Z" fill="#1DA1F2"/>
<path d="M42.0936 25.4016V19.2594C42.0936 19.2594 42.8503 17.9658 39.8909 15.703L35.4951 13.2077L36.1206 12.1466L41.3476 15.1015C41.9833 15.4893 42.5139 16.027 42.893 16.6673C43.2721 17.3076 43.488 18.031 43.5218 18.7741C43.6369 21.3424 43.5218 25.3976 43.5218 25.3976L42.0936 25.4016Z" fill="#1F3965"/>
<path d="M34.5482 13.4159C35.4043 13.4159 36.0983 12.7229 36.0983 11.8682C36.0983 11.0134 35.4043 10.3204 34.5482 10.3204C33.6921 10.3204 32.998 11.0134 32.998 11.8682C32.998 12.7229 33.6921 13.4159 34.5482 13.4159Z" fill="#1F3965"/>
<path fill-rule="evenodd" clip-rule="evenodd" d="M22.6543 0.674244C19.43 0.674244 16.8161 3.3373 16.8161 6.62242V7.37758C16.8161 10.6627 19.43 13.3258 22.6543 13.3258C25.8786 13.3258 28.4924 10.6627 28.4924 7.37758V6.62242C28.4924 3.3373 25.8786 0.674244 22.6543 0.674244ZM16.1543 6.62242C16.1543 2.96499 19.0644 0 22.6543 0C26.2442 0 29.1543 2.96499 29.1543 6.62242V7.37758C29.1543 11.035 26.2442 14 22.6543 14C19.0644 14 16.1543 11.035 16.1543 7.37758V6.62242Z" fill="#1F3965"/>
<path d="M25 16H22L22.6 18H24.4L25 16Z" fill="#1F3965"/>
<path d="M22 24L22.6 19H24.4L25 24H22Z" fill="#1F3965"/>
</svg>
